<?xml version="1.0" standalone="no"?>
<!DOCTYPE svg PUBLIC "-//W3C//DTD SVG 20010904//EN"
 "http://www.w3.org/TR/2001/REC-SVG-20010904/DTD/svg10.dtd">
<svg version="1.0" xmlns="http://www.w3.org/2000/svg"
 width="512.000000pt" height="512.000000pt" viewBox="0 0 512.000000 512.000000"
 preserveAspectRatio="xMidYMid meet">

<g transform="translate(0.000000,512.000000) scale(0.100000,-0.100000)"
fill="#000000" stroke="none">
<path d="M1350 5104 c-145 -39 -257 -153 -295 -300 -14 -54 -15 -302 -13
-2270 l3 -2209 23 -55 c46 -113 129 -196 242 -242 l55 -23 1195 0 1195 0 58
23 c114 47 215 156 248 269 21 72 21 4454 0 4526 -33 113 -134 222 -248 269
l-58 23 -1175 2 c-1011 2 -1183 0 -1230 -13z m439 -273 c71 -10 101 -42 101
-107 0 -37 -6 -51 -29 -75 -31 -30 -57 -34 -191 -29 -83 3 -130 41 -130 105 0
90 90 129 249 106z m1082 -11 c24 -13 49 -61 49 -95 0 -34 -25 -82 -49 -95
-12 -6 -132 -10 -316 -10 l-296 0 -24 24 c-46 46 -45 129 2 166 25 19 39 20
320 20 183 0 302 -4 314 -10z m989 -2235 l0 -1795 -1300 0 -1300 0 0 1795 0
1795 1300 0 1300 0 0 -1795z m-854 -2089 c46 -46 48 -101 5 -148 l-29 -33
-422 0 -422 0 -29 33 c-46 52 -36 136 22 168 19 10 113 13 432 14 l409 0 34
-34z"/>
<path d="M2788 3528 c-14 -12 -709 -907 -751 -968 -21 -31 -21 -42 1 -69 15
-19 36 -24 156 -36 77 -9 140 -16 141 -18 1 -1 -49 -177 -111 -392 -63 -214
-114 -398 -114 -407 0 -23 35 -58 57 -58 9 0 37 22 62 48 85 89 858 1027 865
1049 5 17 1 29 -18 48 -25 25 -26 25 -211 25 -173 0 -186 1 -181 18 82 287
196 703 196 715 0 22 -35 57 -58 57 -10 0 -25 -6 -34 -12z"/>
</g>
</svg>
